<?xml version="1.0" encoding="UTF-8"?>
<svg xmlns="http://www.w3.org/2000/svg" viewBox="0 0 586 244" width="585" height="244" fill="none">
  <title>Eidetic Labs</title>
  <rect width="586" height="244" fill="#0A0A0A"/>
  <g transform="translate(122.0 122.0) scale(1.4025)">
    <path d="M 29.564 -12.246 A 32 32 0 1 0 29.564 12.246" fill="none" stroke="#FFFFFF" stroke-width="16" stroke-linecap="round"/>
    <circle cx="0" cy="0" r="18" fill="#B4ACE6"/>
  </g>
  <path transform="translate(228.00 164.48)" d="M4.14,-39.09 Q4.14,-50.52 9.46,-59.59 Q14.78,-68.66 23.91,-73.75 Q33.05,-78.84 43.91,-78.84 Q56.34,-78.84 66.03,-72.74 Q75.72,-66.64 80.08,-55.44 L64.73,-55.44 Q61.72,-61.59 56.34,-64.62 Q50.95,-67.64 43.91,-67.64 Q36.17,-67.64 30.12,-64.17 Q24.08,-60.70 20.66,-54.21 Q17.25,-47.72 17.25,-39.09 Q17.25,-30.47 20.66,-23.97 Q24.08,-17.47 30.12,-13.95 Q36.17,-10.42 43.91,-10.42 Q50.95,-10.42 56.34,-13.45 Q61.72,-16.47 64.73,-22.62 L80.08,-22.62 Q75.72,-11.42 66.03,-5.38 Q56.34,0.67 43.91,0.67 Q32.92,0.67 23.85,-4.42 Q14.78,-9.52 9.46,-18.59 Q4.14,-27.66 4.14,-39.09 Z M108.87,-52.75 Q111.67,-57.45 116.32,-60.09 Q120.96,-62.72 127.34,-62.72 L127.34,-49.50 L124.10,-49.50 Q116.59,-49.50 112.73,-45.70 Q108.87,-41.89 108.87,-32.48 L108.87,0.00 L96.10,0.00 L96.10,-61.72 L108.87,-61.72 Z M135.97,-31.14 Q135.97,-40.44 139.84,-47.60 Q143.71,-54.77 150.37,-58.74 Q157.04,-62.72 165.10,-62.72 Q172.38,-62.72 177.81,-59.87 Q183.24,-57.02 186.49,-52.75 L186.49,-61.72 L199.37,-61.72 L199.37,0.00 L186.49,0.00 L186.49,-9.19 Q183.24,-4.81 177.64,-1.90 Q172.04,1.02 164.88,1.02 Q156.93,1.02 150.32,-3.08 Q143.71,-7.17 139.84,-14.51 Q135.97,-21.84 135.97,-31.14 Z M186.49,-30.91 Q186.49,-37.30 183.86,-42.00 Q181.22,-46.70 176.97,-49.16 Q172.71,-51.62 167.79,-51.62 Q162.87,-51.62 158.61,-49.22 Q154.35,-46.81 151.72,-42.16 Q149.08,-37.52 149.08,-31.14 Q149.08,-24.75 151.72,-19.94 Q154.35,-15.12 158.66,-12.60 Q162.97,-10.08 167.79,-10.08 Q172.71,-10.08 176.97,-12.55 Q181.22,-15.02 183.86,-19.77 Q186.49,-24.53 186.49,-30.91 Z M223.78,-69.89 Q220.31,-69.89 217.96,-72.24 Q215.61,-74.59 215.61,-78.06 Q215.61,-81.53 217.96,-83.88 Q220.31,-86.23 223.78,-86.23 Q227.14,-86.23 229.49,-83.88 Q231.84,-81.53 231.84,-78.06 Q231.84,-74.59 229.49,-72.24 Q227.14,-69.89 223.78,-69.89 Z M230.06,-61.72 L230.06,0.00 L217.30,0.00 L217.30,-61.72 Z M272.39,-30.80 L300.84,0.00 L283.59,0.00 L260.75,-26.55 L260.75,0.00 L247.98,0.00 L247.98,-82.88 L260.75,-82.88 L260.75,-34.72 L283.14,-61.72 L300.84,-61.72 Z" fill="#FFFFFF" fill-rule="evenodd"/>
</svg>
